<svg xmlns="http://www.w3.org/2000/svg" viewBox="0 0 362.42 847.28"><defs><style>.cls-1{fill:#ebe849;}.cls-2{fill:#00b2b8;}.cls-3{fill:#081725;}</style></defs><title>ShortVersion_BrandColor</title><g id="Layer_2" data-name="Layer 2"><g id="Layer_1-2" data-name="Layer 1"><path class="cls-1" d="M8.13,0V184H143.41v93.21h74.26V184H354v.44h.35V0Z"/><polygon class="cls-2" points="354.3 449.28 354.3 633.71 8.13 633.71 8.13 449.74 143.41 449.74 143.41 354.15 217.67 354.15 217.67 449.74 353.95 449.74 353.95 449.28 354.3 449.28"/><path class="cls-3" d="M65.67,739.35V803H83.16v44.3H0V803H17.72V739.35H0V695H83.16v44.31Z"/><path class="cls-3" d="M232.45,695V847.28H184.5V792.52H158.37v54.76H110.66V695h47.71v53.4H184.5V695Z"/><path class="cls-3" d="M362.42,803v44.3H263.58V695H311.3V803Z"/></g></g></svg>