<svg xmlns="http://www.w3.org/2000/svg" viewBox="0 0 1033.91 947.6"><defs><style>.cls-1{fill:#fff;}.cls-2{fill:#ebe849;}.cls-3{fill:#00b2b8;}</style></defs><title>Badge_white</title><g id="Layer_2" data-name="Layer 2"><g id="Layer_1-2" data-name="Layer 1"><path class="cls-1" d="M0,909.06s416.3,86.7,1033.91,0"/><path class="cls-1" d="M1033.91,45.59S617.61-57,0,45.59"/><path class="cls-1" d="M230.68,765.2V744.6c0-15.76,11.25-26.17,28.48-26.17,17,0,28.37,10.41,28.37,26.17v20.6c0,15.76-11.34,26.17-28.37,26.17C241.93,791.37,230.68,781,230.68,765.2Zm41.3-.32v-20c0-7.36-5.15-12.19-12.82-12.19s-12.93,4.83-12.93,12.19v20c0,7.36,5.15,12.19,12.93,12.19S272,772.24,272,764.88Z"/><path class="cls-1" d="M333.57,734v15.55h24v14.29h-24V790.1H318V719.69h44.46V734Z"/><path class="cls-1" d="M407.66,734v15.55h24v14.29h-24V790.1H392.1V719.69h44.46V734Z"/><path class="cls-1" d="M488.16,734v41.82h9.35V790.1H463.25V775.81h9.46V734h-9.46v-14.3h34.26V734Z"/><path class="cls-1" d="M525.05,765.72V744.07c0-15.44,11-25.64,28-25.64,16.71,0,27.85,10.2,27.85,25.64v2.74H565.3v-2.42c0-7-4.94-11.66-12.3-11.66s-12.4,4.62-12.4,11.66v21c0,7,4.94,11.66,12.4,11.66s12.3-4.62,12.3-11.66V763h15.55v2.73c0,15.45-11.14,25.65-27.85,25.65C536.08,791.37,525.05,781.17,525.05,765.72Z"/><path class="cls-1" d="M633,734v41.82h9.35V790.1H608.07V775.81h9.46V734h-9.46v-14.3h34.26V734Z"/><path class="cls-1" d="M712,776.76H686.68l-3.47,13.34h-16.5l20.71-70.41H711.9l20.7,70.41H715.48Zm-3.68-13.87-7.25-27.64h-3.57l-7.26,27.64Z"/><path class="cls-1" d="M803.23,775.81V790.1H759.82V719.69h15.56v56.12Z"/><path class="cls-2" d="M137.74,175.05v96.18h70.72V320h38.82V271.23h71.23v.23h.18V175.05Z"/><polygon class="cls-3" points="318.69 409.9 318.69 506.31 137.74 506.31 137.74 410.14 208.46 410.14 208.46 360.18 247.28 360.18 247.28 410.14 318.51 410.14 318.51 409.9 318.69 409.9"/><path class="cls-1" d="M396.71,213.42v33h9.07v23h-43.1v-23h9.18v-33h-9.18v-23h43.1v23Z"/><path class="cls-1" d="M418.85,190.45h45.7L475.62,244H480V190.45h24.85v78.91H459.13l-11.19-53.59h-4.36v53.59H418.85Z"/><path class="cls-1" d="M584.9,221.19v17.43c0,18.61-13.18,30.74-33,30.74H519.78V190.45h32.15C571.72,190.45,584.9,202.58,584.9,221.19Zm-24.84.71c0-5.54-3.18-8.48-8.84-8.48h-6.71v33h6.71c5.66,0,8.84-2.94,8.84-8.48Z"/><path class="cls-1" d="M629.66,213.42v33h9.07v23H595.62v-23h9.19v-33h-9.19v-23h43.11v23Z"/><path class="cls-1" d="M694.43,259.23H674.29l-1.88,10.13h-26.5l19.9-78.91h38l19.9,78.91H696.31Zm-4-22.26-3.89-21.55h-4.36L678.3,237Z"/><path class="cls-1" d="M732.94,190.45h45.69L789.7,244h4.36V190.45h24.85v78.91H773.22L762,215.77h-4.36v53.59H732.94Z"/><path class="cls-1" d="M427.92,308.22v78.91H403.07V358.74H389.53v28.39H364.8V308.22h24.73V335.9h13.54V308.22Z"/><path class="cls-1" d="M485.51,377H465.37l-1.88,10.13H437l19.9-78.91h38l19.9,78.91H487.4Zm-4-22.26-3.89-21.55h-4.36l-3.88,21.55Z"/><path class="cls-1" d="M519.55,358V337.31c0-18.49,13.07-30.5,33.21-30.5,19.9,0,33.09,12,33.09,30.5v3.3H561v-2.95c0-4.82-3.3-7.89-8.24-7.89s-8.48,3.07-8.48,7.89v20c0,4.83,3.41,7.89,8.48,7.89s8.24-3.06,8.24-7.89v-2.94h24.85V358c0,18.49-13.19,30.5-33.09,30.5C532.62,388.54,519.55,376.53,519.55,358Z"/><path class="cls-1" d="M628.36,358.74h-5.29v28.39H598.33V308.22h24.74V335.9h5.18l11.54-27.68h27.08l-19.31,36.16,19.79,42.75h-29Z"/><path class="cls-1" d="M708.92,331.19v33H718v23H674.88v-23h9.19v-33h-9.19v-23H718v23Z"/><path class="cls-1" d="M731.06,308.22h45.69l11.07,53.59h4.36V308.22H817v78.91H771.34l-11.19-53.59h-4.36v53.59H731.06Z"/><path class="cls-1" d="M871.32,337v-.59c0-4-3.3-6.6-8.24-6.6s-8.48,3.07-8.48,7.89V359c0,4.83,3.41,7.89,8.48,7.89,4.35,0,7.53-2,8.12-5.42H864V342h32.15v45.11H878.39v-5.3h-3.3c-2.83,4.12-8.72,6.71-16.72,6.71-16.61,0-28.5-11.19-28.5-28.27v-23c0-18.49,13.07-30.5,33.21-30.5,19.9,0,33.09,11.54,33.09,29.21V337Z"/><path class="cls-1" d="M416,481.93v23H364.8V426h24.73v55.94Z"/><path class="cls-1" d="M452.18,448.6V454h24.14v22.14H452.18v6.12H481V504.9H427.45V426H481V448.6Z"/><path class="cls-1" d="M537.56,494.77H517.42l-1.88,10.13H489L509,426h38l19.91,78.91H539.45Zm-4-22.26L529.67,451h-4.35l-3.89,21.55Z"/><path class="cls-1" d="M613.05,454.73v-.59c0-4-3.3-6.6-8.24-6.6s-8.48,3.07-8.48,7.89v21.32c0,4.83,3.41,7.89,8.48,7.89,4.36,0,7.54-2,8.12-5.42h-7.18V459.79H637.9V504.9H620.12v-5.3h-3.3c-2.83,4.12-8.71,6.71-16.72,6.71-16.61,0-28.5-11.19-28.5-28.27v-23c0-18.49,13.07-30.5,33.21-30.5,19.9,0,33.09,11.54,33.09,29.21v.94Z"/><path class="cls-1" d="M651,476.4V426h24.85V476c0,4.48,3.07,7.3,7.78,7.3s7.65-2.82,7.65-7.3V426H716.1V476.4c0,18.13-12.84,29.91-32.5,29.91S651,494.53,651,476.4Z"/><path class="cls-1" d="M755,448.6V454h24.14v22.14H755v6.12h28.85V504.9H730.23V426h53.59V448.6Z"/><path class="cls-1" d="M101.67,631.32c34.61-.59,69.22-.85,103.82-1.28l103.82-.73c34.61-.32,69.22-.26,103.82-.38L517,628.7l103.82.23c34.61.12,69.22.05,103.82.37l103.82.73c34.61.44,69.22.7,103.82,1.29-34.6.6-69.21.85-103.82,1.29l-103.82.73c-34.6.32-69.21.25-103.82.37L517,634l-103.82-.24c-34.6-.12-69.21-.06-103.82-.38l-103.82-.73C170.89,632.17,136.28,631.91,101.67,631.32Z"/></g></g></svg>