<?xml version="1.0" encoding="UTF-8" standalone="no"?>
<svg width="1998px" height="528px" viewBox="0 0 1998 528" version="1.1" xmlns="http://www.w3.org/2000/svg" xmlns:xlink="http://www.w3.org/1999/xlink">
    <!-- Generator: Sketch 46.1 (44463) - http://www.bohemiancoding.com/sketch -->
    <title>protoio_logo</title>
    <desc>Created with Sketch.</desc>
    <defs></defs>
    <g id="Page-1" stroke="none" stroke-width="1" fill="none" fill-rule="evenodd">
        <g id="protoio_logo" transform="translate(0.000000, -2.000000)" fill="#3E4245">
            <path d="M975.385915,2.5915493 L891.064789,38.7295775 L891.064789,270.295775 L891.191549,270.295775 C893.580282,358.008451 965.388732,428.394366 1053.68169,428.394366 L1053.68169,344.073239 C1010.43662,344.073239 975.385915,309.016901 975.385915,265.777465 L975.385915,186.2 L1053.68169,186.2 L1053.68169,101.96338 L975.385915,101.96338 L975.385915,2.5915493" id="Fill-1"></path>
            <path d="M695.712676,342.873239 C652.467606,342.873239 617.416901,307.816901 617.416901,264.577465 C617.416901,221.340845 652.467606,186.28169 695.712676,186.28169 C738.946479,186.28169 774.008451,221.340845 774.008451,264.577465 C774.008451,307.816901 738.946479,342.873239 695.712676,342.873239 M695.712676,101.96338 C605.890141,101.96338 533.092958,174.769014 533.092958,264.577465 C533.092958,354.388732 605.890141,427.194366 695.712676,427.194366 C785.512676,427.194366 858.31831,354.388732 858.31831,264.577465 C858.31831,174.769014 785.512676,101.96338 695.712676,101.96338" id="Fill-2"></path>
            <g id="Group-6" transform="translate(0.000000, 101.408451)">
                <path d="M1236.62535,241.464789 C1193.38028,241.464789 1158.32958,206.408451 1158.32958,163.169014 C1158.32958,119.932394 1193.38028,84.8732394 1236.62535,84.8732394 C1279.86479,84.8732394 1314.91549,119.932394 1314.91549,163.169014 C1314.91549,206.408451 1279.86479,241.464789 1236.62535,241.464789 M1236.62535,0.554929577 C1146.80845,0.554929577 1074.00282,73.3605634 1074.00282,163.169014 C1074.00282,252.980282 1146.80845,325.785915 1236.62535,325.785915 C1326.43099,325.785915 1399.23662,252.980282 1399.23662,163.169014 C1399.23662,73.3605634 1326.43099,0.554929577 1236.62535,0.554929577" id="Fill-3"></path>
                <path d="M162.614085,241.464789 C119.374648,241.464789 84.3183099,206.408451 84.3183099,163.169014 C84.3183099,119.932394 119.374648,84.8732394 162.614085,84.8732394 C205.850704,84.8732394 240.909859,119.932394 240.909859,163.169014 C240.909859,206.408451 205.850704,241.464789 162.614085,241.464789 M162.614085,0.554929577 C72.8056338,0.554929577 0,73.3605634 0,163.169014 C0,165.321127 0.0845070423,167.44507 0.166197183,169.574648 L0,169.574648 L0,392.028169 L84.3183099,428.169014 L84.3183099,305.704225 C107.543662,318.490141 134.222535,325.785915 162.614085,325.785915 C252.422535,325.785915 325.222535,252.980282 325.222535,163.169014 C325.222535,73.3605634 252.422535,0.554929577 162.614085,0.554929577" id="Fill-5"></path>
            </g>
            <path d="M358.174648,260.061972 L358.064789,260.061972 L358.064789,428.394366 L442.377465,428.394366 L442.377465,264.577465 C442.377465,221.340845 477.430986,186.28169 520.673239,186.28169 L520.673239,101.96338 C432.383099,101.96338 360.571831,172.346479 358.174648,260.061972" id="Fill-7"></path>
            <path d="M1835.03662,342.873239 C1791.80282,342.873239 1756.7493,307.816901 1756.7493,264.577465 C1756.7493,221.340845 1791.80282,186.28169 1835.03662,186.28169 C1878.27887,186.28169 1913.32958,221.340845 1913.32958,264.577465 C1913.32958,307.816901 1878.27887,342.873239 1835.03662,342.873239 M1835.03662,101.96338 C1745.23662,101.96338 1672.41972,174.769014 1672.41972,264.577465 C1672.41972,354.388732 1745.23662,427.194366 1835.03662,427.194366 C1924.84507,427.194366 1997.65634,354.388732 1997.65634,264.577465 C1997.65634,174.769014 1924.84507,101.96338 1835.03662,101.96338" id="Fill-8"></path>
            <polygon id="Fill-9" points="1557.32394 427.188732 1641.64789 427.188732 1641.64789 101.96338 1557.32394 101.96338"></polygon>
            <path d="M1467.43944,317.873239 C1437.25915,317.873239 1412.78592,342.352113 1412.78592,372.540845 C1412.78592,402.721127 1437.25915,427.194366 1467.43944,427.194366 C1497.62817,427.194366 1522.10141,402.721127 1522.10141,372.540845 C1522.10141,342.352113 1497.62817,317.873239 1467.43944,317.873239" id="Fill-10"></path>
        </g>
    </g>
</svg>