<?xml version="1.0" standalone="no"?>
<!DOCTYPE svg PUBLIC "-//W3C//DTD SVG 20010904//EN"
 "http://www.w3.org/TR/2001/REC-SVG-20010904/DTD/svg10.dtd">
<svg version="1.0" xmlns="http://www.w3.org/2000/svg"
 width="1277.000000pt" height="1277.000000pt" viewBox="0 0 1277.000000 1277.000000"
 preserveAspectRatio="xMidYMid meet">
<metadata>
Created by potrace 1.11, written by Peter Selinger 2001-2013
</metadata>
<g transform="translate(0.000000,1277.000000) scale(0.100000,-0.100000)"
fill="#000000" stroke="none">
<path d="M5248 12765 c-2 -1 -42 -5 -89 -9 -47 -4 -95 -8 -105 -10 -10 -2 -44
-7 -74 -11 -30 -4 -64 -9 -75 -12 -11 -2 -36 -6 -55 -9 -140 -19 -478 -123
-660 -201 -406 -176 -709 -382 -1020 -693 -234 -233 -426 -496 -579 -790 -106
-206 -175 -381 -250 -635 -12 -41 -49 -202 -56 -245 -3 -19 -10 -57 -15 -85
-5 -27 -12 -72 -15 -100 -3 -27 -8 -66 -11 -85 -10 -60 -12 -541 -3 -620 4
-41 11 -100 14 -130 3 -30 8 -62 10 -70 3 -8 7 -31 9 -50 10 -74 58 -284 86
-377 178 -575 456 -1024 897 -1444 141 -135 407 -332 583 -433 157 -89 448
-220 583 -262 l57 -18 -2 -735 -3 -736 -1060 -2 c-583 -1 -1071 -2 -1085 -3
l-25 0 2 -878 c1 -482 2 -918 2 -967 l1 -90 1083 0 1082 0 5 -1525 5 -1525
966 0 967 0 -1 1516 c0 834 3 1520 6 1525 3 5 456 9 1084 9 l1078 0 3 -1528
c1 -840 5 -1527 10 -1528 9 -1 1904 -1 1918 0 9 1 11 1026 10 3933 l-1 3933
-967 0 -968 0 0 -1437 0 -1436 -1085 0 c-990 1 -1085 2 -1086 17 0 20 0 1421
0 1441 1 10 22 23 59 35 170 57 413 165 572 256 205 116 445 297 627 473 431
414 722 904 881 1481 32 113 68 286 77 365 3 25 7 56 10 70 27 136 27 680 1
817 -3 11 -7 44 -11 74 -21 175 -127 563 -195 714 -5 11 -23 54 -40 95 -91
220 -273 519 -446 735 -114 141 -339 367 -474 473 -58 46 -112 90 -122 97 -37
30 -199 136 -288 187 -254 149 -601 289 -865 348 -27 7 -59 14 -70 16 -93 22
-216 42 -365 59 -48 6 -516 15 -522 10z m412 -1559 c14 -2 42 -7 62 -10 31 -5
76 -14 143 -30 193 -46 445 -171 619 -308 60 -47 235 -225 283 -288 187 -243
309 -542 341 -834 13 -119 5 -406 -13 -458 -2 -7 -7 -31 -10 -53 -33 -226
-192 -558 -360 -750 -130 -148 -227 -234 -373 -329 -79 -51 -264 -146 -285
-146 -7 0 -17 -4 -22 -9 -10 -9 -194 -67 -244 -76 -14 -3 -55 -10 -91 -17 -72
-14 -392 -17 -482 -6 -542 69 -1038 428 -1278 923 -49 102 -103 240 -115 295
-2 8 -9 38 -15 65 -6 28 -13 61 -15 75 -3 14 -7 36 -9 49 -22 104 -23 370 -1
496 41 237 105 415 218 605 183 307 457 545 795 690 75 32 234 82 297 94 39 7
100 17 139 21 22 3 41 7 43 9 6 5 344 -2 373 -8z"/>
</g>
</svg>
